<svg width="20" height="21" viewBox="0 0 20 21" fill="none" xmlns="http://www.w3.org/2000/svg">
<g id="Category">
<path id="Stroke 1" fill-rule="evenodd" clip-rule="evenodd" d="M13.8569 1.5H16.7968C18.0132 1.5 18.9999 2.49531 18.9999 3.72316V6.68769C18.9999 7.91462 18.0132 8.91086 16.7968 8.91086H13.8569C12.6396 8.91086 11.6528 7.91462 11.6528 6.68769V3.72316C11.6528 2.49531 12.6396 1.5 13.8569 1.5Z" fill="#101136" stroke="#101136" stroke-width="1.5" stroke-linecap="round" stroke-linejoin="round"/>
<path id="Stroke 3" fill-rule="evenodd" clip-rule="evenodd" d="M3.20403 1.5H6.14304C7.36033 1.5 8.34707 2.49531 8.34707 3.72316V6.68769C8.34707 7.91462 7.36033 8.91086 6.14304 8.91086H3.20403C1.98674 8.91086 1 7.91462 1 6.68769V3.72316C1 2.49531 1.98674 1.5 3.20403 1.5Z" fill="#101136" stroke="#101136" stroke-width="1.5" stroke-linecap="round" stroke-linejoin="round"/>
<path id="Stroke 5" fill-rule="evenodd" clip-rule="evenodd" d="M3.20403 12.0891H6.14304C7.36033 12.0891 8.34707 13.0844 8.34707 14.3132V17.2768C8.34707 18.5047 7.36033 19.5 6.14304 19.5H3.20403C1.98674 19.5 1 18.5047 1 17.2768V14.3132C1 13.0844 1.98674 12.0891 3.20403 12.0891Z" fill="#101136" stroke="#101136" stroke-width="1.5" stroke-linecap="round" stroke-linejoin="round"/>
<path id="Stroke 7" fill-rule="evenodd" clip-rule="evenodd" d="M13.8569 12.0891H16.7968C18.0132 12.0891 18.9999 13.0844 18.9999 14.3132V17.2768C18.9999 18.5047 18.0132 19.5 16.7968 19.5H13.8569C12.6396 19.5 11.6528 18.5047 11.6528 17.2768V14.3132C11.6528 13.0844 12.6396 12.0891 13.8569 12.0891Z" fill="#101136" stroke="#101136" stroke-width="1.5" stroke-linecap="round" stroke-linejoin="round"/>
</g>
</svg>
