<svg width="16" height="17" viewBox="0 0 16 17" fill="none" xmlns="http://www.w3.org/2000/svg">
<g id="Category">
<path id="Stroke 1" fill-rule="evenodd" clip-rule="evenodd" d="M10.9999 1.5H13.2865C14.2326 1.5 15 2.27413 15 3.22913V5.53487C15 6.48915 14.2326 7.264 13.2865 7.264H10.9999C10.0531 7.264 9.28564 6.48915 9.28564 5.53487V3.22913C9.28564 2.27413 10.0531 1.5 10.9999 1.5Z" stroke="#101136" stroke-width="1.5" stroke-linecap="round" stroke-linejoin="round"/>
<path id="Stroke 3" fill-rule="evenodd" clip-rule="evenodd" d="M2.71424 1.5H5.00014C5.94692 1.5 6.71439 2.27413 6.71439 3.22913V5.53487C6.71439 6.48915 5.94692 7.264 5.00014 7.264H2.71424C1.76747 7.264 1 6.48915 1 5.53487V3.22913C1 2.27413 1.76747 1.5 2.71424 1.5Z" stroke="#101136" stroke-width="1.5" stroke-linecap="round" stroke-linejoin="round"/>
<path id="Stroke 5" fill-rule="evenodd" clip-rule="evenodd" d="M2.71424 9.73599H5.00014C5.94692 9.73599 6.71439 10.5101 6.71439 11.4658V13.7709C6.71439 14.7259 5.94692 15.5 5.00014 15.5H2.71424C1.76747 15.5 1 14.7259 1 13.7709V11.4658C1 10.5101 1.76747 9.73599 2.71424 9.73599Z" stroke="#101136" stroke-width="1.5" stroke-linecap="round" stroke-linejoin="round"/>
<path id="Stroke 7" fill-rule="evenodd" clip-rule="evenodd" d="M10.9999 9.73599H13.2865C14.2326 9.73599 15 10.5101 15 11.4658V13.7709C15 14.7259 14.2326 15.5 13.2865 15.5H10.9999C10.0531 15.5 9.28564 14.7259 9.28564 13.7709V11.4658C9.28564 10.5101 10.0531 9.73599 10.9999 9.73599Z" stroke="#101136" stroke-width="1.5" stroke-linecap="round" stroke-linejoin="round"/>
</g>
</svg>
