<svg width="174" height="24" viewBox="0 0 174 24" fill="none" xmlns="http://www.w3.org/2000/svg">
<g id="Layer_1" clip-path="url(#clip0_426_564)">
<path id="Vector" d="M8.30107 17.5306C10.33 15.0468 12.1402 12.3852 13.7109 9.57686C14.2938 8.54801 14.5839 7.37359 14.5485 6.1857C14.5131 4.99781 14.1536 3.84355 13.5105 2.85275C11.0388 -0.950468 5.5697 -0.950468 3.09293 2.85275C2.44986 3.84354 2.09031 4.9977 2.05469 6.18553C2.01906 7.37336 2.30877 8.5478 2.89126 9.57686C4.46278 12.3846 6.27301 15.0461 8.30107 17.5306ZM4.72016 3.95371C5.11225 3.35067 5.64447 2.85601 6.26939 2.51382C6.89431 2.17163 7.5925 1.99255 8.3017 1.99255C9.01091 1.99255 9.7091 2.17163 10.334 2.51382C10.9589 2.85601 11.4912 3.35067 11.8832 3.95371C12.3288 4.63494 12.5778 5.43013 12.6021 6.24874C12.6264 7.06734 12.4249 7.87646 12.0206 8.58394C10.8981 10.5784 9.65586 12.5001 8.30107 14.3383C6.94714 12.4998 5.70536 10.5781 4.58278 8.58394C4.17848 7.87646 3.977 7.06734 4.00129 6.24874C4.02558 5.43013 4.27466 4.63494 4.72016 3.95371Z" fill="black"/>
<path id="Vector_2" d="M8.30146 8.02959C9.37836 8.02959 10.2514 7.13877 10.2514 6.03988C10.2514 4.94099 9.37836 4.05017 8.30146 4.05017C7.22456 4.05017 6.35156 4.94099 6.35156 6.03988C6.35156 7.13877 7.22456 8.02959 8.30146 8.02959Z" fill="black"/>
<path id="Vector_3" d="M13.2951 14.0887C13.0792 14.418 12.862 14.7417 12.6435 15.0598C13.8749 15.5447 14.6413 16.2379 14.6413 17.0032C14.6413 18.3576 12.2464 19.4752 9.14575 19.645C8.87098 19.6617 8.58864 19.6707 8.30252 19.6707C8.0164 19.6707 7.73406 19.6617 7.45929 19.645C4.35482 19.4752 1.96125 18.3588 1.96125 17.0032C1.96125 16.2379 2.72759 15.5473 3.95904 15.0598C3.74099 14.7421 3.52293 14.4167 3.30866 14.0887C1.29951 14.854 0 16.0772 0 17.4508C0 19.7749 3.7183 21.6604 8.30252 21.6604C12.8867 21.6604 16.6025 19.7749 16.6025 17.4508C16.6025 16.0772 15.3043 14.854 13.2951 14.0887Z" fill="black"/>
<path id="Vector_4" d="M20.708 19.5666V2.0939H24.9254V19.5666H20.708Z" fill="black"/>
<path id="Vector_5" d="M40.6428 11.5344V19.5665H36.5791V12.4206C36.5791 10.8772 35.6842 9.83921 34.3809 9.83921C32.7713 9.83921 31.7227 10.9608 31.7227 13.4907V19.5665H27.6338V6.47458H31.7227V7.72732C32.6945 6.68809 34.0494 6.08359 35.659 6.08359C38.6488 6.08359 40.6428 8.24822 40.6428 11.5344Z" fill="black"/>
<path id="Vector_6" d="M50.7628 19.5666H46.597L41.2817 6.4476H45.6013L48.6931 14.5338L51.7598 6.44889H56.0793L50.7628 19.5666Z" fill="black"/>
<path id="Vector_7" d="M69.5991 14.09H60.1937C60.5264 15.6553 61.5738 16.6199 62.954 16.6199C63.9006 16.6199 64.9985 16.3846 65.6892 15.1074L69.3243 15.8637C68.2252 18.6276 65.8997 19.9575 62.9603 19.9575C59.2546 19.9575 56.188 17.1678 56.188 13.0212C56.188 8.90545 59.2546 6.08359 62.9868 6.08359C66.6156 6.08359 69.5285 8.74339 69.6054 13.0212L69.5991 14.09ZM60.2718 11.5344H65.5657C65.1875 10.1196 64.1603 9.47651 62.9855 9.47651C62.3754 9.47237 61.7806 9.67092 61.2908 10.0422C60.801 10.4134 60.4429 10.9372 60.2706 11.5344H60.2718Z" fill="black"/>
<path id="Vector_8" d="M74.5827 15.3158C74.7617 16.4373 75.7587 16.8592 76.8515 16.8592C77.9241 16.8592 78.5127 16.3897 78.5127 15.8161C78.5127 15.3736 78.18 15.0341 77.2347 14.8514L74.6281 14.3305C72.2509 13.8868 70.8959 12.5826 70.8959 10.5222C70.8959 7.83665 73.171 6.08875 76.4166 6.08875C79.6106 6.08875 81.7319 7.57556 82.2436 9.84437L78.5253 10.5955C78.3993 9.78778 77.6304 9.05209 76.3826 9.05209C75.2847 9.05209 74.9268 9.6 74.9268 10.0695C74.9268 10.4334 75.0793 10.7987 75.8973 10.9813L78.9035 11.6129C81.3311 12.1273 82.4554 13.6206 82.4554 15.5511C82.4554 18.445 80.0026 19.9576 76.6284 19.9576C73.6134 19.9576 71.032 18.836 70.5972 16.1505L74.5827 15.3158Z" fill="black"/>
<path id="Vector_9" d="M93.8789 18.9929C92.8819 19.5408 91.8345 19.9576 90.3774 19.9576C87.1822 19.9576 85.2663 18.1839 85.2663 14.7421V9.78779H82.937V6.47461H85.2625V2.61609H89.3514V6.47461H93.1327V9.78779H89.3514V14.3254C89.3514 15.681 89.9904 16.2289 91.0631 16.2289C91.7163 16.2061 92.3553 16.0273 92.9285 15.7068L93.8789 18.9929Z" fill="black"/>
<path id="Vector_10" d="M108.216 13.0212C108.216 17.1679 104.995 19.9357 101.188 19.9357C97.3034 19.9357 94.083 17.1717 94.083 13.0251C94.083 8.90933 97.3034 6.1402 101.188 6.1402C104.995 6.13634 108.216 8.90033 108.216 13.0212ZM104.28 13.0212C104.28 10.9865 102.767 9.63088 101.188 9.63088C99.5268 9.63088 98.0194 10.9865 98.0194 13.0212C98.0194 15.0791 99.5319 16.4116 101.188 16.4116C102.772 16.4116 104.28 15.0817 104.28 13.0212Z" fill="black"/>
<path id="Vector_11" d="M119.513 6.39744L119.334 10.5698H118.593C115.73 10.5698 114.171 12.0823 114.171 15.4727V19.5666H110.082V6.47461H114.171V8.97879C115.091 7.41352 116.498 6.29326 118.593 6.29326C118.902 6.28614 119.212 6.32118 119.513 6.39744Z" fill="black"/>
<path id="Vector_12" d="M140.751 19.5666H136.662V10.256L131.857 19.5666H129.915L125.083 10.2045V19.5666H120.995V2.0939H125.135L130.885 13.1769L136.632 2.0939H140.747L140.751 19.5666Z" fill="black"/>
<path id="Vector_13" d="M156.954 19.5666H152.865V18.5209C151.868 19.4341 150.539 19.955 148.878 19.955C145.475 19.955 142.616 17.1653 142.616 13.0186C142.616 8.90289 145.479 6.08102 148.878 6.08102C150.539 6.08102 151.868 6.60321 152.865 7.51511V6.47459H156.954V19.5666ZM152.865 13.0212C152.865 11.0122 151.383 9.63086 149.721 9.63086C147.933 9.63086 146.628 11.0122 146.628 13.0212C146.628 15.0547 147.933 16.4116 149.721 16.4116C151.379 16.4116 152.865 15.0547 152.865 13.0212Z" fill="black"/>
<path id="Vector_14" d="M174 13.0212C174 17.1678 171.138 19.9575 167.74 19.9575C166.078 19.9575 164.748 19.4431 163.753 18.5235V24H159.663V6.47458H163.753V7.51767C164.748 6.60577 166.078 6.08359 167.74 6.08359C171.138 6.08359 174 8.90031 174 13.0212ZM169.988 13.0212C169.988 11.0122 168.685 9.63085 166.896 9.63085C165.235 9.63085 163.753 11.0122 163.753 13.0212C163.753 15.0546 165.235 16.4116 166.896 16.4116C168.685 16.4116 169.988 15.0546 169.988 13.0212Z" fill="black"/>
</g>
<defs>
<clipPath id="clip0_426_564">
<rect width="174" height="24" fill="white"/>
</clipPath>
</defs>
</svg>
