<svg width="16" height="17" viewBox="0 0 16 17" fill="none" xmlns="http://www.w3.org/2000/svg">
<g id="vuesax/linear/music-play">
<g id="music-play">
<path id="Vector" d="M3.65323 12.8267V10.88C3.65323 10.2333 4.15989 9.65331 4.87989 9.65331C5.52656 9.65331 6.10656 10.16 6.10656 10.88V12.7533C6.10656 14.0533 5.02655 15.1333 3.72655 15.1333C2.42655 15.1333 1.34655 14.0467 1.34655 12.7533V8.64664C1.27322 4.89998 4.23322 1.86665 7.97989 1.86665C11.7266 1.86665 14.6799 4.89998 14.6799 8.57332V12.68C14.6799 13.98 13.5999 15.06 12.2999 15.06C10.9999 15.06 9.91989 13.98 9.91989 12.68V10.8067C9.91989 10.16 10.4266 9.57999 11.1466 9.57999C11.7932 9.57999 12.3732 10.0867 12.3732 10.8067V12.8267" stroke="#575A7B" stroke-width="1.5" stroke-linecap="round" stroke-linejoin="round"/>
<path id="Vector_2" d="M10.3535 6.57999H9.81348C9.66681 6.57999 9.52681 6.66667 9.46014 6.79333L8.96014 7.79333C8.88681 7.94 8.68014 7.94 8.60681 7.79333L7.38015 5.34668C7.30681 5.20668 7.1068 5.2 7.03347 5.34L6.47347 6.37333C6.4068 6.5 6.27348 6.57999 6.12681 6.57999H5.64014" stroke="#575A7B" stroke-width="1.5" stroke-linecap="round" stroke-linejoin="round"/>
</g>
</g>
</svg>
