<svg width="20" height="21" viewBox="0 0 20 21" fill="none" xmlns="http://www.w3.org/2000/svg">
<g id="octicon:alert-24">
<path id="Vector" d="M10.8332 14.0833C10.8332 14.3043 10.7454 14.5163 10.5891 14.6726C10.4328 14.8288 10.2209 14.9166 9.99984 14.9166C9.77882 14.9166 9.56686 14.8288 9.41058 14.6726C9.2543 14.5163 9.1665 14.3043 9.1665 14.0833C9.1665 13.8623 9.2543 13.6503 9.41058 13.4941C9.56686 13.3378 9.77882 13.25 9.99984 13.25C10.2209 13.25 10.4328 13.3378 10.5891 13.4941C10.7454 13.6503 10.8332 13.8623 10.8332 14.0833ZM10.6248 7.20831C10.6248 7.04255 10.559 6.88358 10.4418 6.76637C10.3246 6.64916 10.1656 6.58331 9.99984 6.58331C9.83408 6.58331 9.67511 6.64916 9.5579 6.76637C9.44069 6.88358 9.37484 7.04255 9.37484 7.20831V10.9583C9.37484 11.1241 9.44069 11.283 9.5579 11.4003C9.67511 11.5175 9.83408 11.5833 9.99984 11.5833C10.1656 11.5833 10.3246 11.5175 10.4418 11.4003C10.559 11.283 10.6248 11.1241 10.6248 10.9583V7.20831Z" fill="white"/>
<path id="Vector_2" d="M8.19656 2.20334C8.99906 0.815845 11.0007 0.815845 11.8032 2.20334L19.2757 15.1233C20.0782 16.5125 19.0757 18.25 17.4716 18.25H2.52823C0.923229 18.25 -0.0784376 16.5125 0.724063 15.1233L8.19656 2.20334ZM10.7216 2.82918C10.6481 2.70293 10.5428 2.59816 10.4161 2.52534C10.2895 2.45253 10.146 2.4142 9.9999 2.4142C9.85382 2.4142 9.7103 2.45253 9.58366 2.52534C9.45703 2.59816 9.35171 2.70293 9.27823 2.82918L1.80656 15.7492C1.73375 15.876 1.69551 16.0196 1.69565 16.1658C1.6958 16.3121 1.73433 16.4557 1.80739 16.5823C1.88046 16.7089 1.98549 16.8142 2.11199 16.8875C2.23849 16.9608 2.38202 16.9996 2.52823 17H17.4716C17.6176 16.9995 17.761 16.9607 17.8874 16.8874C18.0138 16.8142 18.1188 16.709 18.1918 16.5825C18.2648 16.456 18.3034 16.3125 18.3037 16.1665C18.3039 16.0204 18.2658 15.8768 18.1932 15.75L10.7216 2.82918Z" fill="white"/>
</g>
</svg>
