<svg width="20" height="21" viewBox="0 0 20 21" fill="none" xmlns="http://www.w3.org/2000/svg">
<g id="vuesax/linear/profile-2user">
<g id="profile-2user">
<path id="Vector" d="M7.63314 9.55832C7.5498 9.54999 7.4498 9.54999 7.35814 9.55832C5.3748 9.49166 3.7998 7.86666 3.7998 5.86666C3.7998 3.82499 5.4498 2.16666 7.4998 2.16666C9.54147 2.16666 11.1998 3.82499 11.1998 5.86666C11.1915 7.86666 9.61647 9.49166 7.63314 9.55832Z" stroke="#101136" stroke-width="1.5" stroke-linecap="round" stroke-linejoin="round"/>
<path id="Vector_2" d="M13.6752 3.83334C15.2919 3.83334 16.5919 5.14168 16.5919 6.75001C16.5919 8.32501 15.3419 9.60834 13.7836 9.66668C13.7169 9.65834 13.6419 9.65834 13.5669 9.66668" stroke="#101136" stroke-width="1.5" stroke-linecap="round" stroke-linejoin="round"/>
<path id="Vector_3" d="M3.4666 12.6333C1.44993 13.9833 1.44993 16.1833 3.4666 17.525C5.75827 19.0583 9.5166 19.0583 11.8083 17.525C13.8249 16.175 13.8249 13.975 11.8083 12.6333C9.52493 11.1083 5.7666 11.1083 3.4666 12.6333Z" stroke="#101136" stroke-width="1.5" stroke-linecap="round" stroke-linejoin="round"/>
<path id="Vector_4" d="M15.2832 17.1667C15.8832 17.0417 16.4499 16.8 16.9165 16.4417C18.2165 15.4667 18.2165 13.8583 16.9165 12.8833C16.4582 12.5333 15.8999 12.3 15.3082 12.1667" stroke="#101136" stroke-width="1.5" stroke-linecap="round" stroke-linejoin="round"/>
</g>
</g>
</svg>
