<svg width="17" height="17" viewBox="0 0 17 17" fill="none" xmlns="http://www.w3.org/2000/svg">
<g id="vuesax/linear/user-add">
<g id="user-add">
<path id="Vector" d="M8.50016 8.49999C10.4562 8.49999 12.0418 6.91433 12.0418 4.95832C12.0418 3.00231 10.4562 1.41666 8.50016 1.41666C6.54415 1.41666 4.9585 3.00231 4.9585 4.95832C4.9585 6.91433 6.54415 8.49999 8.50016 8.49999Z" stroke="#575A7B" stroke-width="1.5" stroke-linecap="round" stroke-linejoin="round"/>
<path id="Vector_2" d="M2.41553 15.5833C2.41553 12.8421 5.14261 10.625 8.50011 10.625C9.18011 10.625 9.83887 10.7171 10.4551 10.8871" stroke="#575A7B" stroke-width="1.5" stroke-linecap="round" stroke-linejoin="round"/>
<path id="Vector_3" d="M15.5832 12.75C15.5832 12.9767 15.5548 13.1963 15.4982 13.4088C15.4344 13.6921 15.3211 13.9684 15.1723 14.2092C14.6836 15.0309 13.784 15.5834 12.7498 15.5834C12.0203 15.5834 11.3615 15.3071 10.8657 14.8537C10.6532 14.6696 10.469 14.45 10.3273 14.2092C10.0652 13.7842 9.9165 13.2813 9.9165 12.75C9.9165 11.985 10.2211 11.2838 10.7169 10.7738C11.234 10.2425 11.9565 9.91669 12.7498 9.91669C13.5857 9.91669 14.3436 10.2779 14.8536 10.8588C15.3069 11.3617 15.5832 12.0275 15.5832 12.75Z" stroke="#575A7B" stroke-width="1.5" stroke-miterlimit="10" stroke-linecap="round" stroke-linejoin="round"/>
<g id="Group">
<path id="Vector_4" d="M13.8056 12.7358H11.6948" stroke="#575A7B" stroke-width="1.5" stroke-miterlimit="10" stroke-linecap="round" stroke-linejoin="round"/>
<path id="Vector_5" d="M12.75 11.7017V13.8196" stroke="#575A7B" stroke-width="1.5" stroke-miterlimit="10" stroke-linecap="round" stroke-linejoin="round"/>
</g>
</g>
</g>
</svg>
