<svg width="17" height="15" viewBox="0 0 17 15" fill="none" xmlns="http://www.w3.org/2000/svg">
<path id="Vector" d="M2.77083 12.0179V9.03647L5.985 11.1368C6.67705 11.5889 7.48582 11.8297 8.3125 11.8297C9.13917 11.8297 9.94795 11.5889 10.64 11.1368L13.8542 9.03647V12.0179C13.8542 12.1464 13.8125 12.2714 13.7354 12.3741L13.7346 12.3757L13.7338 12.3765L13.7315 12.3797L13.7243 12.3876L13.7148 12.4003L13.7045 12.4137L13.6365 12.4937C13.5566 12.5843 13.4729 12.6715 13.3855 12.7549C13.1662 12.9663 12.8392 13.241 12.3959 13.5133C11.5077 14.0596 10.1634 14.5908 8.3125 14.5908C6.46079 14.5908 5.11733 14.0604 4.22829 13.5133C3.87254 13.2965 3.54082 13.0426 3.23871 12.7557C3.11882 12.6401 3.00593 12.5174 2.90067 12.3884L2.89354 12.3805L2.89117 12.3765V12.3749C2.81382 12.2722 2.77163 12.1465 2.77083 12.0179ZM16.3558 5.9838L9.99083 10.1424C9.49183 10.4686 8.90862 10.6422 8.3125 10.6422C7.71637 10.6422 7.13316 10.4686 6.63416 10.1424L1.1875 6.58388V10.8304C1.1875 10.9879 1.12494 11.1389 1.01359 11.2502C0.902245 11.3616 0.751222 11.4241 0.59375 11.4241C0.436278 11.4241 0.285255 11.3616 0.173905 11.2502C0.0625556 11.1389 0 10.9879 0 10.8304V5.88247C0 5.8128 0.011875 5.7463 0.0340416 5.68455C-0.0105427 5.55836 -0.0111884 5.42081 0.0322091 5.29421C0.0756066 5.16761 0.160502 5.05939 0.273125 4.98709L6.65712 0.894174C7.15117 0.577519 7.72568 0.40921 8.3125 0.40921C8.89932 0.40921 9.47382 0.577519 9.96787 0.894174L16.3519 4.98709C16.4352 5.04062 16.5039 5.11417 16.5516 5.20102C16.5993 5.28788 16.6244 5.38529 16.6248 5.48437C16.6252 5.58345 16.6008 5.68105 16.5538 5.76829C16.5068 5.85552 16.4388 5.92961 16.3558 5.9838Z" fill="#575A7B"/>
</svg>
